# Wavefront .obj file  -  created by SpaceDraw

# File created: 17-06-13, 16:14

mtllib iron ball.mtl

#
# object sphere1
#

v -0.134691 7.698288 -0.151307
v 0.550318 7.638357 -0.151307
v 0.524916 7.638357 0.033505
v 0.450593 7.638357 0.204612
v 0.332863 7.638357 0.349321
v 0.180457 7.638357 0.456902
v 0.004677 7.638357 0.519374
v -0.181438 7.638357 0.532104
v -0.364087 7.638357 0.494149
v -0.529723 7.638357 0.408324
v -0.666061 7.638357 0.28099298
v -0.76299 7.638357 0.1216
v -0.813321 7.638357 -0.058032
v -0.813321 7.638357 -0.244583
v -0.76299 7.638357 -0.424216
v -0.666061 7.638357 -0.583608
v -0.529723 7.638357 -0.71094
v -0.364087 7.638357 -0.79676497
v -0.181438 7.638357 -0.83472
v 0.004677 7.638357 -0.82199
v 0.180457 7.638357 -0.759518
v 0.332863 7.638357 -0.651937
v 0.450593 7.638357 -0.507228
v 0.524915 7.638357 -0.336121
v 1.214513 7.4603868 -0.151307
v 1.164481 7.4603868 0.212703
v 1.018095 7.4603868 0.549717
v 0.786212 7.4603868 0.83473897
v 0.48603 7.4603868 1.046631
v 0.139812 7.4603868 1.169677
v -0.226764 7.4603868 1.194752
v -0.58651197 7.4603868 1.119995
v -0.912751 7.4603868 0.950952
v -1.181285 7.4603868 0.700159
v -1.372198 7.4603868 0.386217
v -1.47133 7.4603868 0.032409
v -1.47133 7.4603868 -0.335024
v -1.372198 7.4603868 -0.688832
v -1.181286 7.4603868 -1.002774
v -0.912752 7.4603868 -1.253567
v -0.586513 7.4603868 -1.422611
v -0.226765 7.4603868 -1.497368
v 0.139811 7.4603868 -1.472293
v 0.48603 7.4603868 -1.349247
v 0.786212 7.4603868 -1.137356
v 1.018095 7.4603868 -0.852334
v 1.164481 7.4603868 -0.51532
v 1.837715 7.169783 -0.151307
v 1.764572 7.169783 0.380841
v 1.55057 7.169783 0.873522
v 1.21158 7.169783 1.290197
v 0.772743 7.169783 1.599962
v 0.266606 7.169783 1.779844
v -0.269293 7.169783 1.8165
v -0.795209 7.169783 1.707214
v -1.272139 7.169783 1.460089
v -1.664709 7.169783 1.093454
v -1.943805 7.169783 0.634501
v -2.088727 7.169783 0.117267996
v -2.088727 7.169783 -0.419883
v -1.943805 7.169783 -0.937116
v -1.66471 7.169783 -1.396069
v -1.27214 7.169783 -1.762704
v -0.795211 7.169783 -2.009829
v -0.269294 7.169783 -2.119116
v 0.266605 7.169783 -2.08246
v 0.772742 7.169783 -1.902579
v 1.211579 7.169783 -1.592814
v 1.55057 7.169783 -1.176139
v 1.764572 7.169783 -0.683458
v 2.400985 6.775377 -0.151307
v 2.306955 6.775377 0.532809
v 2.03184 6.775377 1.166189
v 1.596042 6.775377 1.701855
v 1.031884 6.775377 2.100082
v 0.381207 6.775377 2.331333
v -0.307731 6.775377 2.378457
v -0.983837 6.775377 2.237961
v -1.596966 6.775377 1.920264
v -2.101644 6.775377 1.448927
v -2.460442 6.775377 0.858909
v -2.646751 6.775377 0.193967
v -2.646751 6.775377 -0.496581
v -2.460443 6.775377 -1.161523
v -2.101645 6.775377 -1.751542
v -1.596967 6.775377 -2.222879
v -0.983839 6.775377 -2.540577
v -0.307733 6.775377 -2.681073
v 0.381205 6.775377 -2.633948
v 1.031883 6.775377 -2.402698
v 1.596041 6.775377 -2.004473
v 2.031839 6.775377 -1.468806
v 2.306955 6.775377 -0.835427
v 2.88721 6.289152 -0.151307
v 2.77515 6.289152 0.663991
v 2.44728 6.289152 1.418823
v 1.927917 6.289152 2.057206
v 1.25558 6.289152 2.531794
v 0.480133 6.289152 2.807388
v -0.34091198 6.289152 2.863549
v -1.146664 6.289152 2.696112
v -1.877362 6.289152 2.317495
v -2.478814 6.289152 1.755778
v -2.906414 6.289152 1.052622
v -3.128447 6.289152 0.260175
v -3.128447 6.289152 -0.562788
v -2.906415 6.289152 -1.355235
v -2.478816 6.289152 -2.058392
v -1.877363 6.289152 -2.62011
v -1.146666 6.289152 -2.998727
v -0.340914 6.289152 -3.1661649
v 0.480131 6.289152 -3.110004
v 1.255578 6.289152 -2.834411
v 1.927915 6.289152 -2.359824
v 2.447279 6.289152 -1.721441
v 2.775149 6.289152 -0.966609
v 3.281617 5.725881 -0.151307
v 3.1549299 5.725881 0.770401
v 2.784268 5.725881 1.62375
v 2.19712 5.725881 2.345453
v 1.437032 5.725881 2.881981
v 0.560377 5.725881 3.193545
v -0.367828 5.725881 3.257036
v -1.278742 5.725881 3.067746
v -2.104809 5.725881 2.639713
v -2.78476 5.725881 2.004684
v -3.268168 5.725881 1.209754
v -3.51918 5.725881 0.31388
v -3.51918 5.725881 -0.616493
v -3.268169 5.725881 -1.512367
v -2.784762 5.725881 -2.307297
v -2.10481 5.725881 -2.942328
v -1.278745 5.725881 -3.370361
v -0.36783 5.725881 -3.559651
v 0.560375 5.725881 -3.496161
v 1.43703 5.725881 -3.184598
v 2.197119 5.725881 -2.64807
v 2.784267 5.725881 -1.926369
v 3.1549299 5.725881 -1.073019
v 3.57222 5.102681 -0.151307
v 3.434758 5.102681 0.848804
v 3.0325649 5.102681 1.774743
v 2.395472 5.102681 2.557836
v 1.570729 5.102681 3.140004
v 0.619502 5.102681 3.47807
v -0.387659 5.102681 3.546962
v -1.37606 5.102681 3.34157
v -2.272394 5.102681 2.877128
v -3.010184 5.102681 2.18808
v -3.534712 5.102681 1.32553
v -3.807077 5.102681 0.353451
v -3.807077 5.102681 -0.656064
v -3.534713 5.102681 -1.628143
v -3.010186 5.102681 -2.490693
v -2.272395 5.102681 -3.179742
v -1.376062 5.102681 -3.644185
v -0.387661 5.102681 -3.849578
v 0.6195 5.102681 -3.780686
v 1.570727 5.102681 -3.442621
v 2.395471 5.102681 -2.860454
v 3.032564 5.102681 -2.077362
v 3.434757 5.102681 -1.151423
v 3.750191 4.438485 -0.151307
v 3.606129 4.438485 0.89682
v 3.184627 4.438485 1.867214
v 2.516947 4.438485 2.687904
v 1.652607 4.438485 3.298021
v 0.655711 4.438485 3.652318
v -0.399804 4.438485 3.724518
v -1.435658 4.438485 3.509265
v -2.375026 4.438485 3.0225239
v -3.148238 4.438485 2.300395
v -3.697949 4.438485 1.396434
v -3.98339 4.438485 0.377684
v -3.98339 4.438485 -0.680297
v -3.69795 4.438485 -1.699047
v -3.14824 4.438485 -2.603008
v -2.375028 4.438485 -3.325139
v -1.435661 4.438485 -3.8118799
v -0.399807 4.438485 -4.027134
v 0.65570897 4.438485 -3.954935
v 1.6526049 4.438485 -3.600638
v 2.516945 4.438485 -2.990521
v 3.184626 4.438485 -2.169833
v 3.606128 4.438485 -1.199439
v 3.810121 3.753475 -0.151307
v 3.663837 3.753475 0.91299
v 3.235833 3.753475 1.898353
v 2.557853 3.753475 2.731703
v 1.680179 3.753475 3.351233
v 0.667905 3.753475 3.710996
v -0.403894 3.753475 3.784309
v -1.455728 3.753475 3.565735
v -2.409587 3.753475 3.071486
v -3.194727 3.753475 2.338217
v -3.752918 3.753475 1.420311
v -4.042762 3.753475 0.385845
v -4.042762 3.753475 -0.688458
v -3.752919 3.753475 -1.722924
v -3.194729 3.753475 -2.64083
v -2.409588 3.753475 -3.374101
v -1.45573 3.753475 -3.868351
v -0.403896 3.753475 -4.086924
v 0.667902 3.753475 -4.013612
v 1.680177 3.753475 -3.65385
v 2.557851 3.753475 -3.034321
v 3.235832 3.753475 -2.200971
v 3.663836 3.753475 -1.215608
v 3.750191 3.068466 -0.151307
v 3.606129 3.068466 0.89682
v 3.184628 3.068466 1.867214
v 2.516947 3.068466 2.687904
v 1.652607 3.068466 3.298021
v 0.655711 3.068466 3.652319
v -0.399804 3.068466 3.724518
v -1.435658 3.068466 3.509266
v -2.375026 3.068466 3.022525
v -3.148238 3.068466 2.300395
v -3.697949 3.068466 1.396434
v -3.98339 3.068466 0.377684
v -3.98339 3.068466 -0.680297
v -3.69795 3.068466 -1.699047
v -3.14824 3.068466 -2.603009
v -2.375028 3.068466 -3.325139
v -1.435661 3.068466 -3.8118799
v -0.399807 3.068466 -4.027134
v 0.65570897 3.068466 -3.954935
v 1.6526049 3.068466 -3.600639
v 2.516945 3.068466 -2.990522
v 3.184626 3.068466 -2.169833
v 3.606128 3.068466 -1.199439
v 3.57222 2.40427 -0.151307
v 3.434758 2.40427 0.848805
v 3.032566 2.40427 1.774744
v 2.395473 2.40427 2.557836
v 1.570729 2.40427 3.140004
v 0.619502 2.40427 3.478071
v -0.387659 2.40427 3.546963
v -1.37606 2.40427 3.341571
v -2.272394 2.40427 2.877128
v -3.010184 2.40427 2.18808
v -3.534713 2.40427 1.325531
v -3.807077 2.40427 0.353451
v -3.807077 2.40427 -0.656064
v -3.534714 2.40427 -1.628144
v -3.010186 2.40427 -2.490694
v -2.272396 2.40427 -3.179743
v -1.376062 2.40427 -3.644186
v -0.387661 2.40427 -3.849578
v 0.6195 2.40427 -3.780687
v 1.570727 2.40427 -3.442621
v 2.395471 2.40427 -2.860454
v 3.0325649 2.40427 -2.077362
v 3.434757 2.40427 -1.151423
v 3.281617 1.781068 -0.151307
v 3.154931 1.781068 0.770401
v 2.784269 1.781068 1.623751
v 2.197121 1.781068 2.345453
v 1.4370329 1.781068 2.881982
v 0.560377 1.781068 3.193545
v -0.367828 1.781068 3.257037
v -1.278743 1.781068 3.067746
v -2.104809 1.781068 2.639714
v -2.78476 1.781068 2.004684
v -3.268168 1.781068 1.209754
v -3.51918 1.781068 0.31388
v -3.519181 1.781068 -0.616493
v -3.268169 1.781068 -1.512367
v -2.784762 1.781068 -2.307298
v -2.10481 1.781068 -2.942328
v -1.278745 1.781068 -3.370361
v -0.36783 1.781068 -3.559652
v 0.560375 1.781068 -3.496162
v 1.437031 1.781068 -3.184599
v 2.197119 1.781068 -2.648071
v 2.784268 1.781068 -1.926369
v 3.1549299 1.781068 -1.073019
v 2.887211 1.217798 -0.151307
v 2.77515 1.217798 0.663991
v 2.447281 1.217798 1.418824
v 1.927917 1.217798 2.057207
v 1.25558 1.217798 2.531794
v 0.480133 1.217798 2.807388
v -0.34091198 1.217798 2.86355
v -1.146664 1.217798 2.696113
v -1.877363 1.217798 2.317495
v -2.478815 1.217798 1.755779
v -2.906414 1.217798 1.052622
v -3.128447 1.217798 0.260175
v -3.128448 1.217798 -0.562788
v -2.906415 1.217798 -1.355235
v -2.478816 1.217798 -2.058393
v -1.877364 1.217798 -2.62011
v -1.146666 1.217798 -2.998728
v -0.340914 1.217798 -3.1661649
v 0.480131 1.217798 -3.110005
v 1.255578 1.217798 -2.834411
v 1.927916 1.217798 -2.359824
v 2.447279 1.217798 -1.721441
v 2.77515 1.217798 -0.966609
v 2.400986 0.731573 -0.151307
v 2.306956 0.731573 0.532809
v 2.03184 0.731573 1.166189
v 1.596043 0.731573 1.701856
v 1.031885 0.731573 2.100083
v 0.381207 0.731573 2.3313339
v -0.307731 0.731573 2.378458
v -0.983837 0.731573 2.237962
v -1.596966 0.731573 1.920264
v -2.101645 0.731573 1.448928
v -2.460443 0.731573 0.858909
v -2.646751 0.731573 0.193967
v -2.6467519 0.731573 -0.496581
v -2.460444 0.731573 -1.161523
v -2.101646 0.731573 -1.751542
v -1.596968 0.731573 -2.22288
v -0.983839 0.731573 -2.540577
v -0.307733 0.731573 -2.681074
v 0.381206 0.731573 -2.63395
v 1.031883 0.731573 -2.402699
v 1.596042 0.731573 -2.004473
v 2.031839 0.731573 -1.468806
v 2.306955 0.731573 -0.835427
v 1.837716 0.337166 -0.151307
v 1.764573 0.337166 0.380841
v 1.550571 0.337166 0.873523
v 1.211581 0.337166 1.290198
v 0.772744 0.337166 1.599963
v 0.266606 0.337166 1.779844
v -0.269293 0.337166 1.816501
v -0.79521 0.337166 1.707214
v -1.27214 0.337166 1.460089
v -1.66471 0.337166 1.093455
v -1.943805 0.337166 0.634502
v -2.088728 0.337166 0.117267996
v -2.088728 0.337166 -0.419883
v -1.943806 0.337166 -0.937116
v -1.664711 0.337166 -1.396069
v -1.27214 0.337166 -1.762705
v -0.795211 0.337166 -2.00983
v -0.269294 0.337166 -2.119117
v 0.266605 0.337166 -2.08246
v 0.772743 0.337166 -1.902579
v 1.21158 0.337166 -1.592815
v 1.550571 0.337166 -1.17614
v 1.764573 0.337166 -0.683458
v 1.214515 0.046563 -0.151307
v 1.164483 0.046563 0.212703
v 1.018096 0.046563 0.549718
v 0.786213 0.046563 0.83474
v 0.486031 0.046563 1.046632
v 0.139812 0.046563 1.169679
v -0.226764 0.046563 1.194753
v -0.586513 0.046563 1.119997
v -0.912752 0.046563 0.950953
v -1.181286 0.046563 0.70016
v -1.3721989 0.046563 0.386217
v -1.471331 0.046563 0.032409
v -1.471332 0.046563 -0.335024
v -1.3721989 0.046563 -0.688832
v -1.181287 0.046563 -1.002775
v -0.912753 0.046563 -1.253569
v -0.586514 0.046563 -1.422612
v -0.226765 0.046563 -1.497369
v 0.139811 0.046563 -1.472294
v 0.48603 0.046563 -1.349249
v 0.786213 0.046563 -1.137357
v 1.018096 0.046563 -0.852334
v 1.164482 0.046563 -0.51532
v 0.550319 -0.131407 -0.151307
v 0.524917 -0.131407 0.033505
v 0.450595 -0.131407 0.204612
v 0.332864 -0.131407 0.349322
v 0.180458 -0.131407 0.456903
v 0.0046779998 -0.131407 0.519375
v -0.181438 -0.131407 0.532106
v -0.364087 -0.131407 0.494151
v -0.529723 -0.131407 0.408325
v -0.666062 -0.131407 0.280994
v -0.762991 -0.131407 0.121601
v -0.813322 -0.131407 -0.058031
v -0.813322 -0.131407 -0.244583
v -0.762991 -0.131407 -0.424216
v -0.666062 -0.131407 -0.583609
v -0.529724 -0.131407 -0.710941
v -0.364088 -0.131407 -0.796766
v -0.181438 -0.131407 -0.83472097
v 0.004677 -0.131407 -0.821991
v 0.180457 -0.131407 -0.759519
v 0.332864 -0.131407 -0.651938
v 0.450594 -0.131407 -0.507229
v 0.524917 -0.131407 -0.336122
v -0.134691 -0.191338 -0.151307
# 393 vertices

vn 0.0 1.0 0.0
vn 0.17359999 0.9848 0.0
vn 0.1671 0.9848 0.0468
vn 0.14829999 0.9848 0.0902
vn 0.118499994 0.9848 0.1268
vn 0.079799995 0.9848 0.1541
vn 0.035299998 0.9848 0.1699
vn -0.0117999995 0.9848 0.1732
vn -0.0581 0.9848 0.1635
vn -0.100099996 0.9848 0.1418
vn -0.1346 0.9848 0.1095
vn -0.1592 0.9848 0.0691
vn -0.17199999 0.9848 0.023599999
vn -0.17199999 0.9848 -0.023599999
vn -0.1592 0.9848 -0.0691
vn -0.1346 0.9848 -0.1095
vn -0.100099996 0.9848 -0.1418
vn -0.0581 0.9848 -0.1635
vn -0.0117999995 0.9848 -0.1732
vn 0.035299998 0.9848 -0.1699
vn 0.079799995 0.9848 -0.1541
vn 0.118499994 0.9848 -0.1268
vn 0.14829999 0.9848 -0.0902
vn 0.1671 0.9848 -0.0468
vn 0.3292 0.93969995 0.092199996
vn 0.3419 0.93969995 0.0
vn 0.29209998 0.93969995 0.1776
vn 0.23339999 0.93969995 0.2499
vn 0.1573 0.93969995 0.30359998
vn 0.0695 0.93969995 0.3348
vn -0.0233 0.93969995 0.34109998
vn -0.11449999 0.93969995 0.3222
vn -0.1972 0.93969995 0.2793
vn -0.2652 0.93969995 0.21579999
vn -0.3136 0.93969995 0.1362
vn -0.3387 0.93969995 0.046499997
vn -0.3387 0.93969995 -0.046499997
vn -0.3136 0.93969995 -0.1362
vn -0.2652 0.93969995 -0.21579999
vn -0.1972 0.93969995 -0.2793
vn -0.11449999 0.93969995 -0.3222
vn -0.0233 0.93969995 -0.34109998
vn 0.0695 0.93969995 -0.3348
vn 0.1573 0.93969995 -0.30359998
vn 0.23339999 0.93969995 -0.2499
vn 0.29209998 0.93969995 -0.1776
vn 0.3292 0.93969995 -0.092199996
vn 0.48139998 0.866 0.1348
vn 0.49989998 0.866 0.0
vn 0.4271 0.866 0.2597
vn 0.3412 0.866 0.3653
vn 0.22999999 0.866 0.4438
vn 0.1017 0.866 0.4894
vn -0.0341 0.866 0.4987
vn -0.1674 0.866 0.471
vn -0.2883 0.866 0.4084
vn -0.38779998 0.866 0.3155
vn -0.4585 0.866 0.19909999
vn -0.49519998 0.866 0.067999996
vn -0.49519998 0.866 -0.067999996
vn -0.4585 0.866 -0.19909999
vn -0.38779998 0.866 -0.3155
vn -0.2883 0.866 -0.4084
vn -0.1674 0.866 -0.471
vn -0.0341 0.866 -0.4987
vn 0.1017 0.866 -0.4894
vn 0.22999999 0.866 -0.4438
vn 0.3412 0.866 -0.3653
vn 0.4271 0.866 -0.2597
vn 0.48139998 0.866 -0.1348
vn 0.64269996 0.766 0.0
vn 0.6188 0.766 0.1734
vn 0.5491 0.766 0.3339
vn 0.4387 0.766 0.46969998
vn 0.2956 0.766 0.5706
vn 0.13069999 0.766 0.6292
vn -0.0438 0.766 0.6412
vn -0.21519999 0.766 0.6056
vn -0.3706 0.766 0.525
vn -0.4985 0.766 0.40559998
vn -0.5895 0.766 0.25599998
vn -0.6367 0.766 0.0875
vn -0.6367 0.766 -0.0875
vn -0.5895 0.766 -0.25599998
vn -0.4985 0.766 -0.40559998
vn -0.3706 0.766 -0.525
vn -0.21519999 0.766 -0.6056
vn -0.0438 0.766 -0.6412
vn 0.13069999 0.766 -0.6292
vn 0.2956 0.766 -0.5706
vn 0.4386 0.766 -0.46969998
vn 0.5491 0.766 -0.3339
vn 0.6188 0.766 -0.1734
vn 0.73749995 0.6428 0.2066
vn 0.76589996 0.6428 0.0
vn 0.6544 0.6428 0.398
vn 0.52279997 0.6428 0.55979997
vn 0.3524 0.6428 0.68009996
vn 0.1558 0.6428 0.7499
vn -0.052199997 0.6428 0.7642
vn -0.2565 0.6428 0.72169995
vn -0.44169998 0.6428 0.6257
vn -0.5941 0.6428 0.4834
vn -0.7025 0.6428 0.3051
vn -0.75879997 0.6428 0.1043
vn -0.75879997 0.6428 -0.1043
vn -0.7025 0.6428 -0.3051
vn -0.5941 0.6428 -0.4834
vn -0.44169998 0.6428 -0.6257
vn -0.2565 0.6428 -0.72169995
vn -0.052199997 0.6428 -0.7642
vn 0.1558 0.6428 -0.7499
vn 0.3524 0.6428 -0.68009996
vn 0.52279997 0.6428 -0.55979997
vn 0.6544 0.6428 -0.398
vn 0.73749995 0.6428 -0.2066
vn 0.8659 0.5 0.0
vn 0.83379996 0.5 0.23359999
vn 0.7399 0.5 0.4499
vn 0.59099996 0.5 0.6328
vn 0.39839998 0.5 0.7689
vn 0.1761 0.5 0.84779996
vn -0.059 0.5 0.8639
vn -0.29 0.5 0.81589997
vn -0.4994 0.5 0.70739996
vn -0.6717 0.5 0.54649997
vn -0.79429996 0.5 0.345
vn -0.85789996 0.5 0.1179
vn -0.85789996 0.5 -0.1179
vn -0.79429996 0.5 -0.345
vn -0.6717 0.5 -0.54649997
vn -0.4994 0.5 -0.70739996
vn -0.29 0.5 -0.81589997
vn -0.059 0.5 -0.8639
vn 0.1761 0.5 -0.84779996
vn 0.39839998 0.5 -0.7689
vn 0.59099996 0.5 -0.6329
vn 0.7399 0.5 -0.4499
vn 0.83379996 0.5 -0.23359999
vn 0.9396 0.34199998 0.0
vn 0.9048 0.34199998 0.25349998
vn 0.8028 0.34199998 0.48819998
vn 0.64129996 0.34199998 0.6867
vn 0.4323 0.34199998 0.8343
vn 0.1911 0.34199998 0.91999996
vn -0.0641 0.34199998 0.9374
vn -0.3146 0.34199998 0.8854
vn -0.54179996 0.34199998 0.7676
vn -0.72889996 0.34199998 0.593
vn -0.86179996 0.34199998 0.3743
vn -0.9309 0.34199998 0.12789999
vn -0.9309 0.34199998 -0.12789999
vn -0.86179996 0.34199998 -0.3743
vn -0.72889996 0.34199998 -0.593
vn -0.54179996 0.34199998 -0.7676
vn -0.3146 0.34199998 -0.8854
vn -0.0641 0.34199998 -0.9374
vn 0.1911 0.34199998 -0.91999996
vn 0.4323 0.34199998 -0.8343
vn 0.64129996 0.34199998 -0.6867
vn 0.8028 0.34199998 -0.48819998
vn 0.9048 0.34199998 -0.25349998
vn 0.9848 0.17359999 0.0
vn 0.9482 0.17359999 0.2656
vn 0.84139997 0.17359999 0.51159996
vn 0.6721 0.17359999 0.7197
vn 0.45299998 0.17359999 0.8743
vn 0.2003 0.17359999 0.96419996
vn -0.0672 0.17359999 0.98249996
vn -0.3297 0.17359999 0.92789996
vn -0.5679 0.17359999 0.8045
vn -0.7639 0.17359999 0.6214
vn -0.9032 0.17359999 0.39229998
vn -0.9756 0.17359999 0.134
vn -0.9756 0.17359999 -0.134
vn -0.9032 0.17359999 -0.39229998
vn -0.7639 0.17359999 -0.6214
vn -0.5679 0.17359999 -0.8045
vn -0.3297 0.17359999 -0.92789996
vn -0.0672 0.17359999 -0.98249996
vn 0.2003 0.17359999 -0.96419996
vn 0.45299998 0.17359999 -0.8743
vn 0.6721 0.17359999 -0.7197
vn 0.84139997 0.17359999 -0.51159996
vn 0.9482 0.17359999 -0.2656
vn 1.0 0.0 0.0
vn 0.9629 0.0 0.2697
vn 0.8544 0.0 0.51949996
vn 0.6825 0.0 0.7308
vn 0.45999998 0.0 0.8878
vn 0.2034 0.0 0.979
vn -0.0682 0.0 0.99759996
vn -0.3348 0.0 0.9422
vn -0.5766 0.0 0.81689996
vn -0.7757 0.0 0.631
vn -0.91719997 0.0 0.39839998
vn -0.9906 0.0 0.1361
vn -0.9906 0.0 -0.1361
vn -0.91719997 0.0 -0.39839998
vn -0.7757 0.0 -0.631
vn -0.5766 0.0 -0.81689996
vn -0.3348 0.0 -0.9422
vn -0.0682 0.0 -0.99759996
vn 0.2034 0.0 -0.979
vn 0.45999998 0.0 -0.8878
vn 0.6825 0.0 -0.7308
vn 0.8544 0.0 -0.51949996
vn 0.9629 0.0 -0.2697
vn 0.9848 -0.17359999 0.0
vn 0.9482 -0.17359999 0.2656
vn 0.84139997 -0.17359999 0.51159996
vn 0.6721 -0.17359999 0.7197
vn 0.45299998 -0.17359999 0.8743
vn 0.2003 -0.17359999 0.96419996
vn -0.0672 -0.17359999 0.98249996
vn -0.3297 -0.17359999 0.92789996
vn -0.5679 -0.17359999 0.8045
vn -0.7639 -0.17359999 0.6214
vn -0.9032 -0.17359999 0.39229998
vn -0.9756 -0.17359999 0.134
vn -0.9756 -0.17359999 -0.134
vn -0.9032 -0.17359999 -0.39229998
vn -0.7639 -0.17359999 -0.6214
vn -0.5679 -0.17359999 -0.8045
vn -0.3297 -0.17359999 -0.92789996
vn -0.0672 -0.17359999 -0.98249996
vn 0.2003 -0.17359999 -0.96419996
vn 0.45299998 -0.17359999 -0.8743
vn 0.6721 -0.17359999 -0.7197
vn 0.84139997 -0.17359999 -0.51159996
vn 0.9482 -0.17359999 -0.2656
vn 0.9048 -0.34199998 0.25349998
vn 0.9396 -0.34199998 0.0
vn 0.8028 -0.34199998 0.48819998
vn 0.64129996 -0.34199998 0.6867
vn 0.4323 -0.34199998 0.8343
vn 0.1911 -0.34199998 0.91999996
vn -0.0641 -0.34199998 0.9374
vn -0.3146 -0.34199998 0.8854
vn -0.54179996 -0.34199998 0.7676
vn -0.72889996 -0.34199998 0.593
vn -0.86179996 -0.34199998 0.3743
vn -0.9309 -0.34199998 0.12789999
vn -0.9309 -0.34199998 -0.12789999
vn -0.86179996 -0.34199998 -0.3743
vn -0.72889996 -0.34199998 -0.593
vn -0.54179996 -0.34199998 -0.7676
vn -0.3146 -0.34199998 -0.8854
vn -0.0641 -0.34199998 -0.9374
vn 0.1911 -0.34199998 -0.91999996
vn 0.4323 -0.34199998 -0.8343
vn 0.64129996 -0.34199998 -0.6867
vn 0.8028 -0.34199998 -0.48819998
vn 0.9048 -0.34199998 -0.25349998
vn 0.8659 -0.5 0.0
vn 0.83379996 -0.5 0.23359999
vn 0.7399 -0.5 0.4499
vn 0.59099996 -0.5 0.6329
vn 0.39839998 -0.5 0.7689
vn 0.1761 -0.5 0.84779996
vn -0.059 -0.5 0.8639
vn -0.29 -0.5 0.81589997
vn -0.4994 -0.5 0.70739996
vn -0.6717 -0.5 0.54649997
vn -0.79429996 -0.5 0.345
vn -0.85789996 -0.5 0.1179
vn -0.85789996 -0.5 -0.1179
vn -0.79429996 -0.5 -0.345
vn -0.6717 -0.5 -0.54649997
vn -0.4994 -0.5 -0.70739996
vn -0.29 -0.5 -0.81589997
vn -0.059 -0.5 -0.8639
vn 0.1761 -0.5 -0.84779996
vn 0.39839998 -0.5 -0.7689
vn 0.59099996 -0.5 -0.6329
vn 0.7399 -0.5 -0.4499
vn 0.83379996 -0.5 -0.23359999
vn 0.73749995 -0.6428 0.2066
vn 0.76589996 -0.6428 0.0
vn 0.6544 -0.6428 0.398
vn 0.52279997 -0.6428 0.55979997
vn 0.3524 -0.6428 0.68009996
vn 0.1558 -0.6428 0.7499
vn -0.052199997 -0.6428 0.7642
vn -0.2565 -0.6428 0.72169995
vn -0.44169998 -0.6428 0.6257
vn -0.5941 -0.6428 0.4834
vn -0.7025 -0.6428 0.3051
vn -0.75879997 -0.6428 0.1043
vn -0.75879997 -0.6428 -0.1043
vn -0.7025 -0.6428 -0.3051
vn -0.5941 -0.6428 -0.4834
vn -0.44169998 -0.6428 -0.6257
vn -0.2565 -0.6428 -0.72169995
vn -0.052199997 -0.6428 -0.7642
vn 0.1558 -0.6428 -0.7499
vn 0.3524 -0.6428 -0.68009996
vn 0.52279997 -0.6428 -0.55979997
vn 0.6544 -0.6428 -0.398
vn 0.73749995 -0.6428 -0.2066
vn 0.6188 -0.766 0.1734
vn 0.64269996 -0.766 0.0
vn 0.5491 -0.766 0.3339
vn 0.4387 -0.766 0.46969998
vn 0.2956 -0.766 0.5706
vn 0.13069999 -0.766 0.6292
vn -0.0438 -0.766 0.6412
vn -0.21519999 -0.766 0.6056
vn -0.3706 -0.766 0.525
vn -0.4985 -0.766 0.40559998
vn -0.5895 -0.766 0.25599998
vn -0.6367 -0.766 0.0875
vn -0.6367 -0.766 -0.0875
vn -0.5895 -0.766 -0.25599998
vn -0.4985 -0.766 -0.40559998
vn -0.3706 -0.766 -0.525
vn -0.21519999 -0.766 -0.6056
vn -0.0438 -0.766 -0.6412
vn 0.13069999 -0.766 -0.6292
vn 0.2956 -0.766 -0.5706
vn 0.4386 -0.766 -0.46969998
vn 0.5491 -0.766 -0.3339
vn 0.6188 -0.766 -0.1734
vn 0.49989998 -0.866 0.0
vn 0.48139998 -0.866 0.1348
vn 0.4271 -0.866 0.2597
vn 0.3412 -0.866 0.3653
vn 0.22999999 -0.866 0.4438
vn 0.1017 -0.866 0.4894
vn -0.0341 -0.866 0.4987
vn -0.1674 -0.866 0.471
vn -0.2883 -0.866 0.4084
vn -0.38779998 -0.866 0.3155
vn -0.4585 -0.866 0.19909999
vn -0.49519998 -0.866 0.067999996
vn -0.49519998 -0.866 -0.067999996
vn -0.4585 -0.866 -0.19909999
vn -0.38779998 -0.866 -0.3155
vn -0.2883 -0.866 -0.4084
vn -0.1674 -0.866 -0.471
vn -0.0341 -0.866 -0.4987
vn 0.1017 -0.866 -0.4894
vn 0.22999999 -0.866 -0.4438
vn 0.3412 -0.866 -0.3653
vn 0.4271 -0.866 -0.2597
vn 0.48139998 -0.866 -0.1348
vn 0.3292 -0.93969995 0.092199996
vn 0.3419 -0.93969995 0.0
vn 0.29209998 -0.93969995 0.1776
vn 0.23339999 -0.93969995 0.2499
vn 0.1573 -0.93969995 0.30359998
vn 0.0695 -0.93969995 0.3348
vn -0.0233 -0.93969995 0.34109998
vn -0.11449999 -0.93969995 0.3222
vn -0.1972 -0.93969995 0.2793
vn -0.2652 -0.93969995 0.21579999
vn -0.3136 -0.93969995 0.1362
vn -0.3387 -0.93969995 0.046499997
vn -0.3387 -0.93969995 -0.046499997
vn -0.3136 -0.93969995 -0.1362
vn -0.2652 -0.93969995 -0.21579999
vn -0.1972 -0.93969995 -0.2793
vn -0.11449999 -0.93969995 -0.3222
vn -0.0233 -0.93969995 -0.34109998
vn 0.0695 -0.93969995 -0.3348
vn 0.1573 -0.93969995 -0.30359998
vn 0.23339999 -0.93969995 -0.2499
vn 0.29209998 -0.93969995 -0.1776
vn 0.3292 -0.93969995 -0.092199996
vn 0.1671 -0.9848 0.0468
vn 0.17359999 -0.9848 0.0
vn 0.14829999 -0.9848 0.0902
vn 0.118499994 -0.9848 0.1268
vn 0.079799995 -0.9848 0.1541
vn 0.035299998 -0.9848 0.1699
vn -0.0117999995 -0.9848 0.1732
vn -0.0581 -0.9848 0.1635
vn -0.100099996 -0.9848 0.1418
vn -0.1346 -0.9848 0.1095
vn -0.1592 -0.9848 0.0691
vn -0.17199999 -0.9848 0.023599999
vn -0.17199999 -0.9848 -0.023599999
vn -0.1592 -0.9848 -0.0691
vn -0.1346 -0.9848 -0.1095
vn -0.100099996 -0.9848 -0.1418
vn -0.0581 -0.9848 -0.1635
vn -0.0117999995 -0.9848 -0.1732
vn 0.035299998 -0.9848 -0.1699
vn 0.079799995 -0.9848 -0.1541
vn 0.118499994 -0.9848 -0.1268
vn 0.14829999 -0.9848 -0.0902
vn 0.1671 -0.9848 -0.0468
vn 0.0 -1.0 0.0
# 393 vertex normals

vt 0.064615 0.211895 0.0
vt 0.0 0.089964 0.0
vt 0.129231 0.089964 0.0
vt 0.193847 0.211895 0.0
vt 0.258463 0.089964 0.0
vt 0.323079 0.211895 0.0
vt 0.387694 0.089964 0.0
vt 0.452309 0.211895 0.0
vt 0.516926 0.089964 0.0
vt 0.581541 0.211895 0.0
vt 0.646158 0.089964 0.0
vt 0.710773 0.211895 0.0
vt 0.775389 0.089964 0.0
vt 0.840004 0.211895 0.0
vt 0.904619 0.089964 0.0
vt 0.969238 0.211895 0.0
vt 1.033852 0.089964 0.0
vt 1.098467 0.211895 0.0
vt 1.163082 0.089964 0.0
vt 1.227697 0.211895 0.0
vt 1.292317 0.089964 0.0
vt 1.356931 0.211895 0.0
vt 1.421546 0.089964 0.0
vt 1.486162 0.211895 0.0
vt 1.550778 0.089964 0.0
vt 1.615394 0.211895 0.0
vt 1.680008 0.089964 0.0
vt 1.744628 0.211895 0.0
vt 1.809239 0.089964 0.0
vt 1.873858 0.211895 0.0
vt 1.938476 0.089964 0.0
vt 2.00309 0.211895 0.0
vt 2.067704 0.089964 0.0
vt 2.132322 0.211895 0.0
vt 2.196935 0.089964 0.0
vt 2.261553 0.211895 0.0
vt 2.326164 0.089964 0.0
vt 2.390783 0.211895 0.0
vt 2.455394 0.089964 0.0
vt 2.520015 0.211895 0.0
vt 2.584635 0.089964 0.0
vt 2.649246 0.211895 0.0
vt 2.713863 0.089964 0.0
vt 2.778478 0.211895 0.0
vt 2.843093 0.089964 0.0
vt 2.907713 0.211895 0.0
vt 2.972325 0.089964 0.0
vt 0.129231 -0.031966 0.0
vt 0.0 -0.031966 0.0
vt 0.258463 -0.031966 0.0
vt 0.387694 -0.031966 0.0
vt 0.516926 -0.031966 0.0
vt 0.646158 -0.031966 0.0
vt 0.775389 -0.031966 0.0
vt 0.904619 -0.031966 0.0
vt 1.033852 -0.031966 0.0
vt 1.163082 -0.031966 0.0
vt 1.292317 -0.031966 0.0
vt 1.421546 -0.031966 0.0
vt 1.550778 -0.031966 0.0
vt 1.680008 -0.031966 0.0
vt 1.809239 -0.031966 0.0
vt 1.938476 -0.031966 0.0
vt 2.067704 -0.031966 0.0
vt 2.196935 -0.031966 0.0
vt 2.326164 -0.031966 0.0
vt 2.455394 -0.031966 0.0
vt 2.584635 -0.031966 0.0
vt 2.713863 -0.031966 0.0
vt 2.843093 -0.031966 0.0
vt 2.972325 -0.031966 0.0
vt 0.129231 -0.153897 0.0
vt 0.0 -0.153897 0.0
vt 0.258463 -0.153897 0.0
vt 0.387694 -0.153897 0.0
vt 0.516926 -0.153897 0.0
vt 0.646158 -0.153897 0.0
vt 0.775389 -0.153897 0.0
vt 0.904619 -0.153897 0.0
vt 1.033852 -0.153897 0.0
vt 1.163082 -0.153897 0.0
vt 1.292317 -0.153897 0.0
vt 1.421546 -0.153897 0.0
vt 1.550778 -0.153897 0.0
vt 1.680008 -0.153897 0.0
vt 1.809239 -0.153897 0.0
vt 1.938476 -0.153897 0.0
vt 2.067704 -0.153897 0.0
vt 2.196935 -0.153897 0.0
vt 2.326164 -0.153897 0.0
vt 2.455394 -0.153897 0.0
vt 2.584635 -0.153897 0.0
vt 2.713863 -0.153897 0.0
vt 2.843093 -0.153897 0.0
vt 2.972325 -0.153897 0.0
vt 0.0 -0.275827 0.0
vt 0.129231 -0.275827 0.0
vt 0.258463 -0.275827 0.0
vt 0.387694 -0.275827 0.0
vt 0.516926 -0.275827 0.0
vt 0.646158 -0.275827 0.0
vt 0.775389 -0.275827 0.0
vt 0.904619 -0.275827 0.0
vt 1.033852 -0.275827 0.0
vt 1.163082 -0.275827 0.0
vt 1.292317 -0.275827 0.0
vt 1.421546 -0.275827 0.0
vt 1.550778 -0.275827 0.0
vt 1.680008 -0.275827 0.0
vt 1.809239 -0.275827 0.0
vt 1.938476 -0.275827 0.0
vt 2.067704 -0.275827 0.0
vt 2.196935 -0.275827 0.0
vt 2.326164 -0.275827 0.0
vt 2.455394 -0.275827 0.0
vt 2.584635 -0.275827 0.0
vt 2.713863 -0.275827 0.0
vt 2.843093 -0.275827 0.0
vt 2.972325 -0.275827 0.0
vt 0.129231 -0.397758 0.0
vt 0.0 -0.397758 0.0
vt 0.258463 -0.397758 0.0
vt 0.387694 -0.397758 0.0
vt 0.516926 -0.397758 0.0
vt 0.646158 -0.397758 0.0
vt 0.775389 -0.397758 0.0
vt 0.904619 -0.397758 0.0
vt 1.033852 -0.397758 0.0
vt 1.163082 -0.397758 0.0
vt 1.292317 -0.397758 0.0
vt 1.421546 -0.397758 0.0
vt 1.550778 -0.397758 0.0
vt 1.680008 -0.397758 0.0
vt 1.809239 -0.397758 0.0
vt 1.938476 -0.397758 0.0
vt 2.067704 -0.397758 0.0
vt 2.196935 -0.397758 0.0
vt 2.326164 -0.397758 0.0
vt 2.455394 -0.397758 0.0
vt 2.584635 -0.397758 0.0
vt 2.713863 -0.397758 0.0
vt 2.843093 -0.397758 0.0
vt 2.972325 -0.397758 0.0
vt 0.0 -0.519689 0.0
vt 0.129231 -0.519689 0.0
vt 0.258463 -0.519689 0.0
vt 0.387694 -0.519689 0.0
vt 0.516926 -0.519689 0.0
vt 0.646158 -0.519689 0.0
vt 0.775389 -0.519689 0.0
vt 0.904619 -0.519689 0.0
vt 1.033852 -0.519689 0.0
vt 1.163082 -0.519689 0.0
vt 1.292317 -0.519689 0.0
vt 1.421546 -0.519689 0.0
vt 1.550778 -0.519689 0.0
vt 1.680008 -0.519689 0.0
vt 1.809239 -0.519689 0.0
vt 1.938476 -0.519689 0.0
vt 2.067704 -0.519689 0.0
vt 2.196935 -0.519689 0.0
vt 2.326164 -0.519689 0.0
vt 2.455394 -0.519689 0.0
vt 2.584635 -0.519689 0.0
vt 2.713863 -0.519689 0.0
vt 2.843093 -0.519689 0.0
vt 2.972325 -0.519689 0.0
vt 0.0 -0.64162 0.0
vt 0.129231 -0.64162 0.0
vt 0.258463 -0.64162 0.0
vt 0.387694 -0.64162 0.0
vt 0.516926 -0.64162 0.0
vt 0.646158 -0.64162 0.0
vt 0.775389 -0.64162 0.0
vt 0.904619 -0.64162 0.0
vt 1.033852 -0.64162 0.0
vt 1.163082 -0.64162 0.0
vt 1.292317 -0.64162 0.0
vt 1.421546 -0.64162 0.0
vt 1.550778 -0.64162 0.0
vt 1.680008 -0.64162 0.0
vt 1.809239 -0.64162 0.0
vt 1.938476 -0.64162 0.0
vt 2.067704 -0.64162 0.0
vt 2.196935 -0.64162 0.0
vt 2.326164 -0.64162 0.0
vt 2.455394 -0.64162 0.0
vt 2.584635 -0.64162 0.0
vt 2.713863 -0.64162 0.0
vt 2.843093 -0.64162 0.0
vt 2.972325 -0.64162 0.0
vt 0.0 -0.76355 0.0
vt 0.129231 -0.76355 0.0
vt 0.258463 -0.76355 0.0
vt 0.387694 -0.76355 0.0
vt 0.516926 -0.76355 0.0
vt 0.646158 -0.76355 0.0
vt 0.775389 -0.76355 0.0
vt 0.904619 -0.76355 0.0
vt 1.033852 -0.76355 0.0
vt 1.163082 -0.76355 0.0
vt 1.292317 -0.76355 0.0
vt 1.421546 -0.76355 0.0
vt 1.550778 -0.76355 0.0
vt 1.680008 -0.76355 0.0
vt 1.809239 -0.76355 0.0
vt 1.938476 -0.76355 0.0
vt 2.067704 -0.76355 0.0
vt 2.196935 -0.76355 0.0
vt 2.326164 -0.76355 0.0
vt 2.455394 -0.76355 0.0
vt 2.584635 -0.76355 0.0
vt 2.713863 -0.76355 0.0
vt 2.843093 -0.76355 0.0
vt 2.972325 -0.76355 0.0
vt 0.0 -0.885481 0.0
vt 0.129231 -0.885481 0.0
vt 0.258463 -0.885481 0.0
vt 0.387694 -0.885481 0.0
vt 0.516926 -0.885481 0.0
vt 0.646158 -0.885481 0.0
vt 0.775389 -0.885481 0.0
vt 0.904619 -0.885481 0.0
vt 1.033852 -0.885481 0.0
vt 1.163082 -0.885481 0.0
vt 1.292317 -0.885481 0.0
vt 1.421546 -0.885481 0.0
vt 1.550778 -0.885481 0.0
vt 1.680008 -0.885481 0.0
vt 1.809239 -0.885481 0.0
vt 1.938476 -0.885481 0.0
vt 2.067704 -0.885481 0.0
vt 2.196935 -0.885481 0.0
vt 2.326164 -0.885481 0.0
vt 2.455394 -0.885481 0.0
vt 2.584635 -0.885481 0.0
vt 2.713863 -0.885481 0.0
vt 2.843093 -0.885481 0.0
vt 2.972325 -0.885481 0.0
vt 0.0 -1.007413 0.0
vt 0.129231 -1.007413 0.0
vt 0.258463 -1.007413 0.0
vt 0.387694 -1.007413 0.0
vt 0.516926 -1.007413 0.0
vt 0.646158 -1.007413 0.0
vt 0.775389 -1.007413 0.0
vt 0.904619 -1.007413 0.0
vt 1.033852 -1.007413 0.0
vt 1.163082 -1.007413 0.0
vt 1.292317 -1.007413 0.0
vt 1.421546 -1.007413 0.0
vt 1.550778 -1.007413 0.0
vt 1.680008 -1.007413 0.0
vt 1.809239 -1.007413 0.0
vt 1.938476 -1.007413 0.0
vt 2.067704 -1.007413 0.0
vt 2.196935 -1.007413 0.0
vt 2.326164 -1.007413 0.0
vt 2.455394 -1.007413 0.0
vt 2.584635 -1.007413 0.0
vt 2.713863 -1.007413 0.0
vt 2.843093 -1.007413 0.0
vt 2.972325 -1.007413 0.0
vt 0.129231 -1.129344 0.0
vt 0.0 -1.129344 0.0
vt 0.258463 -1.129344 0.0
vt 0.387694 -1.129344 0.0
vt 0.516926 -1.129344 0.0
vt 0.646158 -1.129344 0.0
vt 0.775389 -1.129344 0.0
vt 0.904619 -1.129344 0.0
vt 1.033852 -1.129344 0.0
vt 1.163082 -1.129344 0.0
vt 1.292317 -1.129344 0.0
vt 1.421546 -1.129344 0.0
vt 1.550778 -1.129344 0.0
vt 1.680008 -1.129344 0.0
vt 1.809239 -1.129344 0.0
vt 1.938476 -1.129344 0.0
vt 2.067704 -1.129344 0.0
vt 2.196935 -1.129344 0.0
vt 2.326164 -1.129344 0.0
vt 2.455394 -1.129344 0.0
vt 2.584635 -1.129344 0.0
vt 2.713863 -1.129344 0.0
vt 2.843093 -1.129344 0.0
vt 2.972325 -1.129344 0.0
vt 0.0 -1.251274 0.0
vt 0.129231 -1.251274 0.0
vt 0.258463 -1.251274 0.0
vt 0.387694 -1.251274 0.0
vt 0.516926 -1.251274 0.0
vt 0.646158 -1.251274 0.0
vt 0.775389 -1.251274 0.0
vt 0.904619 -1.251274 0.0
vt 1.033852 -1.251274 0.0
vt 1.163082 -1.251274 0.0
vt 1.292317 -1.251274 0.0
vt 1.421546 -1.251274 0.0
vt 1.550778 -1.251274 0.0
vt 1.680008 -1.251274 0.0
vt 1.809239 -1.251274 0.0
vt 1.938476 -1.251274 0.0
vt 2.067704 -1.251274 0.0
vt 2.196935 -1.251274 0.0
vt 2.326164 -1.251274 0.0
vt 2.455394 -1.251274 0.0
vt 2.584635 -1.251274 0.0
vt 2.713863 -1.251274 0.0
vt 2.843093 -1.251274 0.0
vt 2.972325 -1.251274 0.0
vt 0.129231 -1.373205 0.0
vt 0.0 -1.373205 0.0
vt 0.258463 -1.373205 0.0
vt 0.387694 -1.373205 0.0
vt 0.516926 -1.373205 0.0
vt 0.646158 -1.373205 0.0
vt 0.775389 -1.373205 0.0
vt 0.904619 -1.373205 0.0
vt 1.033852 -1.373205 0.0
vt 1.163082 -1.373205 0.0
vt 1.292317 -1.373205 0.0
vt 1.421546 -1.373205 0.0
vt 1.550778 -1.373205 0.0
vt 1.680008 -1.373205 0.0
vt 1.809239 -1.373205 0.0
vt 1.938476 -1.373205 0.0
vt 2.067704 -1.373205 0.0
vt 2.196935 -1.373205 0.0
vt 2.326164 -1.373205 0.0
vt 2.455394 -1.373205 0.0
vt 2.584635 -1.373205 0.0
vt 2.713863 -1.373205 0.0
vt 2.843093 -1.373205 0.0
vt 2.972325 -1.373205 0.0
vt 0.129231 -1.495133 0.0
vt 0.0 -1.495133 0.0
vt 0.258463 -1.495133 0.0
vt 0.387694 -1.495133 0.0
vt 0.516926 -1.495133 0.0
vt 0.646158 -1.495133 0.0
vt 0.775389 -1.495133 0.0
vt 0.904619 -1.495133 0.0
vt 1.033852 -1.495133 0.0
vt 1.163082 -1.495133 0.0
vt 1.292317 -1.495133 0.0
vt 1.421546 -1.495133 0.0
vt 1.550778 -1.495133 0.0
vt 1.680008 -1.495133 0.0
vt 1.809239 -1.495133 0.0
vt 1.938476 -1.495133 0.0
vt 2.067704 -1.495133 0.0
vt 2.196935 -1.495133 0.0
vt 2.326164 -1.495133 0.0
vt 2.455394 -1.495133 0.0
vt 2.584635 -1.495133 0.0
vt 2.713863 -1.495133 0.0
vt 2.843093 -1.495133 0.0
vt 2.972325 -1.495133 0.0
vt 0.0 -1.617068 0.0
vt 0.129231 -1.617068 0.0
vt 0.258463 -1.617068 0.0
vt 0.387694 -1.617068 0.0
vt 0.516926 -1.617068 0.0
vt 0.646158 -1.617068 0.0
vt 0.775389 -1.617068 0.0
vt 0.904619 -1.617068 0.0
vt 1.033852 -1.617068 0.0
vt 1.163082 -1.617068 0.0
vt 1.292317 -1.617068 0.0
vt 1.421546 -1.617068 0.0
vt 1.550778 -1.617068 0.0
vt 1.680008 -1.617068 0.0
vt 1.809239 -1.617068 0.0
vt 1.938476 -1.617068 0.0
vt 2.067704 -1.617068 0.0
vt 2.196935 -1.617068 0.0
vt 2.326164 -1.617068 0.0
vt 2.455394 -1.617068 0.0
vt 2.584635 -1.617068 0.0
vt 2.713863 -1.617068 0.0
vt 2.843093 -1.617068 0.0
vt 2.972325 -1.617068 0.0
vt 0.129231 -1.7389979 0.0
vt 0.0 -1.7389979 0.0
vt 0.258463 -1.7389979 0.0
vt 0.387694 -1.7389979 0.0
vt 0.516926 -1.7389979 0.0
vt 0.646158 -1.7389979 0.0
vt 0.775389 -1.7389979 0.0
vt 0.904619 -1.7389979 0.0
vt 1.033852 -1.7389979 0.0
vt 1.163082 -1.7389979 0.0
vt 1.292317 -1.7389979 0.0
vt 1.421546 -1.7389979 0.0
vt 1.550778 -1.7389979 0.0
vt 1.680008 -1.7389979 0.0
vt 1.809239 -1.7389979 0.0
vt 1.938476 -1.7389979 0.0
vt 2.067704 -1.7389979 0.0
vt 2.196935 -1.7389979 0.0
vt 2.326164 -1.7389979 0.0
vt 2.455394 -1.7389979 0.0
vt 2.584635 -1.7389979 0.0
vt 2.713863 -1.7389979 0.0
vt 2.843093 -1.7389979 0.0
vt 2.972325 -1.7389979 0.0
vt 0.129231 -1.8609279 0.0
vt 0.0 -1.8609279 0.0
vt 0.258463 -1.8609279 0.0
vt 0.387694 -1.8609279 0.0
vt 0.516926 -1.8609279 0.0
vt 0.646158 -1.8609279 0.0
vt 0.775389 -1.8609279 0.0
vt 0.904619 -1.8609279 0.0
vt 1.033852 -1.8609279 0.0
vt 1.163082 -1.8609279 0.0
vt 1.292317 -1.8609279 0.0
vt 1.421546 -1.8609279 0.0
vt 1.550778 -1.8609279 0.0
vt 1.680008 -1.8609279 0.0
vt 1.809239 -1.8609279 0.0
vt 1.938476 -1.8609279 0.0
vt 2.067704 -1.8609279 0.0
vt 2.196935 -1.8609279 0.0
vt 2.326164 -1.8609279 0.0
vt 2.455394 -1.8609279 0.0
vt 2.584635 -1.8609279 0.0
vt 2.713863 -1.8609279 0.0
vt 2.843093 -1.8609279 0.0
vt 2.972325 -1.8609279 0.0
vt 0.064615 -1.982858 0.0
vt 0.193847 -1.982858 0.0
vt 0.323079 -1.982858 0.0
vt 0.452309 -1.982858 0.0
vt 0.581541 -1.982858 0.0
vt 0.710773 -1.982858 0.0
vt 0.840004 -1.982858 0.0
vt 0.969238 -1.982858 0.0
vt 1.098467 -1.982858 0.0
vt 1.227697 -1.982858 0.0
vt 1.356931 -1.982858 0.0
vt 1.486162 -1.982858 0.0
vt 1.615394 -1.982858 0.0
vt 1.744628 -1.982858 0.0
vt 1.873858 -1.982858 0.0
vt 2.00309 -1.982858 0.0
vt 2.132322 -1.982858 0.0
vt 2.261553 -1.982858 0.0
vt 2.390783 -1.982858 0.0
vt 2.520015 -1.982858 0.0
vt 2.649246 -1.982858 0.0
vt 2.778478 -1.982858 0.0
vt 2.907713 -1.982858 0.0
# 454 texture coords

g sphere1

usemtl rusted
s 1
f 3/3/3 2/2/2 1/1/1
f 4/5/4 3/3/3 1/4/1
f 5/7/5 4/5/4 1/6/1
f 6/9/6 5/7/5 1/8/1
f 7/11/7 6/9/6 1/10/1
f 8/13/8 7/11/7 1/12/1
f 9/15/9 8/13/8 1/14/1
f 10/17/10 9/15/9 1/16/1
f 11/19/11 10/17/10 1/18/1
f 12/21/12 11/19/11 1/20/1
f 13/23/13 12/21/12 1/22/1
f 14/25/14 13/23/13 1/24/1
f 15/27/15 14/25/14 1/26/1
f 16/29/16 15/27/15 1/28/1
f 17/31/17 16/29/16 1/30/1
f 18/33/18 17/31/17 1/32/1
f 19/35/19 18/33/18 1/34/1
f 20/37/20 19/35/19 1/36/1
f 21/39/21 20/37/20 1/38/1
f 22/41/22 21/39/21 1/40/1
f 23/43/23 22/41/22 1/42/1
f 24/45/24 23/43/23 1/44/1
f 2/47/2 24/45/24 1/46/1
f 26/48/25 25/49/26 2/2/2 3/3/3
f 27/50/27 26/48/25 3/3/3 4/5/4
f 28/51/28 27/50/27 4/5/4 5/7/5
f 29/52/29 28/51/28 5/7/5 6/9/6
f 30/53/30 29/52/29 6/9/6 7/11/7
f 31/54/31 30/53/30 7/11/7 8/13/8
f 32/55/32 31/54/31 8/13/8 9/15/9
f 33/56/33 32/55/32 9/15/9 10/17/10
f 34/57/34 33/56/33 10/17/10 11/19/11
f 35/58/35 34/57/34 11/19/11 12/21/12
f 36/59/36 35/58/35 12/21/12 13/23/13
f 37/60/37 36/59/36 13/23/13 14/25/14
f 38/61/38 37/60/37 14/25/14 15/27/15
f 39/62/39 38/61/38 15/27/15 16/29/16
f 40/63/40 39/62/39 16/29/16 17/31/17
f 41/64/41 40/63/40 17/31/17 18/33/18
f 42/65/42 41/64/41 18/33/18 19/35/19
f 43/66/43 42/65/42 19/35/19 20/37/20
f 44/67/44 43/66/43 20/37/20 21/39/21
f 45/68/45 44/67/44 21/39/21 22/41/22
f 46/69/46 45/68/45 22/41/22 23/43/23
f 47/70/47 46/69/46 23/43/23 24/45/24
f 25/71/26 47/70/47 24/45/24 2/47/2
f 49/72/48 48/73/49 25/49/26 26/48/25
f 50/74/50 49/72/48 26/48/25 27/50/27
f 51/75/51 50/74/50 27/50/27 28/51/28
f 52/76/52 51/75/51 28/51/28 29/52/29
f 53/77/53 52/76/52 29/52/29 30/53/30
f 54/78/54 53/77/53 30/53/30 31/54/31
f 55/79/55 54/78/54 31/54/31 32/55/32
f 56/80/56 55/79/55 32/55/32 33/56/33
f 57/81/57 56/80/56 33/56/33 34/57/34
f 58/82/58 57/81/57 34/57/34 35/58/35
f 59/83/59 58/82/58 35/58/35 36/59/36
f 60/84/60 59/83/59 36/59/36 37/60/37
f 61/85/61 60/84/60 37/60/37 38/61/38
f 62/86/62 61/85/61 38/61/38 39/62/39
f 63/87/63 62/86/62 39/62/39 40/63/40
f 64/88/64 63/87/63 40/63/40 41/64/41
f 65/89/65 64/88/64 41/64/41 42/65/42
f 66/90/66 65/89/65 42/65/42 43/66/43
f 67/91/67 66/90/66 43/66/43 44/67/44
f 68/92/68 67/91/67 44/67/44 45/68/45
f 69/93/69 68/92/68 45/68/45 46/69/46
f 70/94/70 69/93/69 46/69/46 47/70/47
f 48/95/49 70/94/70 47/70/47 25/71/26
f 72/97/72 71/96/71 48/73/49 49/72/48
f 73/98/73 72/97/72 49/72/48 50/74/50
f 74/99/74 73/98/73 50/74/50 51/75/51
f 75/100/75 74/99/74 51/75/51 52/76/52
f 76/101/76 75/100/75 52/76/52 53/77/53
f 77/102/77 76/101/76 53/77/53 54/78/54
f 78/103/78 77/102/77 54/78/54 55/79/55
f 79/104/79 78/103/78 55/79/55 56/80/56
f 80/105/80 79/104/79 56/80/56 57/81/57
f 81/106/81 80/105/80 57/81/57 58/82/58
f 82/107/82 81/106/81 58/82/58 59/83/59
f 83/108/83 82/107/82 59/83/59 60/84/60
f 84/109/84 83/108/83 60/84/60 61/85/61
f 85/110/85 84/109/84 61/85/61 62/86/62
f 86/111/86 85/110/85 62/86/62 63/87/63
f 87/112/87 86/111/86 63/87/63 64/88/64
f 88/113/88 87/112/87 64/88/64 65/89/65
f 89/114/89 88/113/88 65/89/65 66/90/66
f 90/115/90 89/114/89 66/90/66 67/91/67
f 91/116/91 90/115/90 67/91/67 68/92/68
f 92/117/92 91/116/91 68/92/68 69/93/69
f 93/118/93 92/117/92 69/93/69 70/94/70
f 71/119/71 93/118/93 70/94/70 48/95/49
f 95/120/94 94/121/95 71/96/71 72/97/72
f 96/122/96 95/120/94 72/97/72 73/98/73
f 97/123/97 96/122/96 73/98/73 74/99/74
f 98/124/98 97/123/97 74/99/74 75/100/75
f 99/125/99 98/124/98 75/100/75 76/101/76
f 100/126/100 99/125/99 76/101/76 77/102/77
f 101/127/101 100/126/100 77/102/77 78/103/78
f 102/128/102 101/127/101 78/103/78 79/104/79
f 103/129/103 102/128/102 79/104/79 80/105/80
f 104/130/104 103/129/103 80/105/80 81/106/81
f 105/131/105 104/130/104 81/106/81 82/107/82
f 106/132/106 105/131/105 82/107/82 83/108/83
f 107/133/107 106/132/106 83/108/83 84/109/84
f 108/134/108 107/133/107 84/109/84 85/110/85
f 109/135/109 108/134/108 85/110/85 86/111/86
f 110/136/110 109/135/109 86/111/86 87/112/87
f 111/137/111 110/136/110 87/112/87 88/113/88
f 112/138/112 111/137/111 88/113/88 89/114/89
f 113/139/113 112/138/112 89/114/89 90/115/90
f 114/140/114 113/139/113 90/115/90 91/116/91
f 115/141/115 114/140/114 91/116/91 92/117/92
f 116/142/116 115/141/115 92/117/92 93/118/93
f 94/143/95 116/142/116 93/118/93 71/119/71
f 118/145/118 117/144/117 94/121/95 95/120/94
f 119/146/119 118/145/118 95/120/94 96/122/96
f 120/147/120 119/146/119 96/122/96 97/123/97
f 121/148/121 120/147/120 97/123/97 98/124/98
f 122/149/122 121/148/121 98/124/98 99/125/99
f 123/150/123 122/149/122 99/125/99 100/126/100
f 124/151/124 123/150/123 100/126/100 101/127/101
f 125/152/125 124/151/124 101/127/101 102/128/102
f 126/153/126 125/152/125 102/128/102 103/129/103
f 127/154/127 126/153/126 103/129/103 104/130/104
f 128/155/128 127/154/127 104/130/104 105/131/105
f 129/156/129 128/155/128 105/131/105 106/132/106
f 130/157/130 129/156/129 106/132/106 107/133/107
f 131/158/131 130/157/130 107/133/107 108/134/108
f 132/159/132 131/158/131 108/134/108 109/135/109
f 133/160/133 132/159/132 109/135/109 110/136/110
f 134/161/134 133/160/133 110/136/110 111/137/111
f 135/162/135 134/161/134 111/137/111 112/138/112
f 136/163/136 135/162/135 112/138/112 113/139/113
f 137/164/137 136/163/136 113/139/113 114/140/114
f 138/165/138 137/164/137 114/140/114 115/141/115
f 139/166/139 138/165/138 115/141/115 116/142/116
f 117/167/117 139/166/139 116/142/116 94/143/95
f 141/169/141 140/168/140 117/144/117 118/145/118
f 142/170/142 141/169/141 118/145/118 119/146/119
f 143/171/143 142/170/142 119/146/119 120/147/120
f 144/172/144 143/171/143 120/147/120 121/148/121
f 145/173/145 144/172/144 121/148/121 122/149/122
f 146/174/146 145/173/145 122/149/122 123/150/123
f 147/175/147 146/174/146 123/150/123 124/151/124
f 148/176/148 147/175/147 124/151/124 125/152/125
f 149/177/149 148/176/148 125/152/125 126/153/126
f 150/178/150 149/177/149 126/153/126 127/154/127
f 151/179/151 150/178/150 127/154/127 128/155/128
f 152/180/152 151/179/151 128/155/128 129/156/129
f 153/181/153 152/180/152 129/156/129 130/157/130
f 154/182/154 153/181/153 130/157/130 131/158/131
f 155/183/155 154/182/154 131/158/131 132/159/132
f 156/184/156 155/183/155 132/159/132 133/160/133
f 157/185/157 156/184/156 133/160/133 134/161/134
f 158/186/158 157/185/157 134/161/134 135/162/135
f 159/187/159 158/186/158 135/162/135 136/163/136
f 160/188/160 159/187/159 136/163/136 137/164/137
f 161/189/161 160/188/160 137/164/137 138/165/138
f 162/190/162 161/189/161 138/165/138 139/166/139
f 140/191/140 162/190/162 139/166/139 117/167/117
f 164/193/164 163/192/163 140/168/140 141/169/141
f 165/194/165 164/193/164 141/169/141 142/170/142
f 166/195/166 165/194/165 142/170/142 143/171/143
f 167/196/167 166/195/166 143/171/143 144/172/144
f 168/197/168 167/196/167 144/172/144 145/173/145
f 169/198/169 168/197/168 145/173/145 146/174/146
f 170/199/170 169/198/169 146/174/146 147/175/147
f 171/200/171 170/199/170 147/175/147 148/176/148
f 172/201/172 171/200/171 148/176/148 149/177/149
f 173/202/173 172/201/172 149/177/149 150/178/150
f 174/203/174 173/202/173 150/178/150 151/179/151
f 175/204/175 174/203/174 151/179/151 152/180/152
f 176/205/176 175/204/175 152/180/152 153/181/153
f 177/206/177 176/205/176 153/181/153 154/182/154
f 178/207/178 177/206/177 154/182/154 155/183/155
f 179/208/179 178/207/178 155/183/155 156/184/156
f 180/209/180 179/208/179 156/184/156 157/185/157
f 181/210/181 180/209/180 157/185/157 158/186/158
f 182/211/182 181/210/181 158/186/158 159/187/159
f 183/212/183 182/211/182 159/187/159 160/188/160
f 184/213/184 183/212/183 160/188/160 161/189/161
f 185/214/185 184/213/184 161/189/161 162/190/162
f 163/215/163 185/214/185 162/190/162 140/191/140
f 187/217/187 186/216/186 163/192/163 164/193/164
f 188/218/188 187/217/187 164/193/164 165/194/165
f 189/219/189 188/218/188 165/194/165 166/195/166
f 190/220/190 189/219/189 166/195/166 167/196/167
f 191/221/191 190/220/190 167/196/167 168/197/168
f 192/222/192 191/221/191 168/197/168 169/198/169
f 193/223/193 192/222/192 169/198/169 170/199/170
f 194/224/194 193/223/193 170/199/170 171/200/171
f 195/225/195 194/224/194 171/200/171 172/201/172
f 196/226/196 195/225/195 172/201/172 173/202/173
f 197/227/197 196/226/196 173/202/173 174/203/174
f 198/228/198 197/227/197 174/203/174 175/204/175
f 199/229/199 198/228/198 175/204/175 176/205/176
f 200/230/200 199/229/199 176/205/176 177/206/177
f 201/231/201 200/230/200 177/206/177 178/207/178
f 202/232/202 201/231/201 178/207/178 179/208/179
f 203/233/203 202/232/202 179/208/179 180/209/180
f 204/234/204 203/233/203 180/209/180 181/210/181
f 205/235/205 204/234/204 181/210/181 182/211/182
f 206/236/206 205/235/205 182/211/182 183/212/183
f 207/237/207 206/236/206 183/212/183 184/213/184
f 208/238/208 207/237/207 184/213/184 185/214/185
f 186/239/186 208/238/208 185/214/185 163/215/163
f 210/241/210 209/240/209 186/216/186 187/217/187
f 211/242/211 210/241/210 187/217/187 188/218/188
f 212/243/212 211/242/211 188/218/188 189/219/189
f 213/244/213 212/243/212 189/219/189 190/220/190
f 214/245/214 213/244/213 190/220/190 191/221/191
f 215/246/215 214/245/214 191/221/191 192/222/192
f 216/247/216 215/246/215 192/222/192 193/223/193
f 217/248/217 216/247/216 193/223/193 194/224/194
f 218/249/218 217/248/217 194/224/194 195/225/195
f 219/250/219 218/249/218 195/225/195 196/226/196
f 220/251/220 219/250/219 196/226/196 197/227/197
f 221/252/221 220/251/220 197/227/197 198/228/198
f 222/253/222 221/252/221 198/228/198 199/229/199
f 223/254/223 222/253/222 199/229/199 200/230/200
f 224/255/224 223/254/223 200/230/200 201/231/201
f 225/256/225 224/255/224 201/231/201 202/232/202
f 226/257/226 225/256/225 202/232/202 203/233/203
f 227/258/227 226/257/226 203/233/203 204/234/204
f 228/259/228 227/258/227 204/234/204 205/235/205
f 229/260/229 228/259/228 205/235/205 206/236/206
f 230/261/230 229/260/229 206/236/206 207/237/207
f 231/262/231 230/261/230 207/237/207 208/238/208
f 209/263/209 231/262/231 208/238/208 186/239/186
f 233/264/232 232/265/233 209/240/209 210/241/210
f 234/266/234 233/264/232 210/241/210 211/242/211
f 235/267/235 234/266/234 211/242/211 212/243/212
f 236/268/236 235/267/235 212/243/212 213/244/213
f 237/269/237 236/268/236 213/244/213 214/245/214
f 238/270/238 237/269/237 214/245/214 215/246/215
f 239/271/239 238/270/238 215/246/215 216/247/216
f 240/272/240 239/271/239 216/247/216 217/248/217
f 241/273/241 240/272/240 217/248/217 218/249/218
f 242/274/242 241/273/241 218/249/218 219/250/219
f 243/275/243 242/274/242 219/250/219 220/251/220
f 244/276/244 243/275/243 220/251/220 221/252/221
f 245/277/245 244/276/244 221/252/221 222/253/222
f 246/278/246 245/277/245 222/253/222 223/254/223
f 247/279/247 246/278/246 223/254/223 224/255/224
f 248/280/248 247/279/247 224/255/224 225/256/225
f 249/281/249 248/280/248 225/256/225 226/257/226
f 250/282/250 249/281/249 226/257/226 227/258/227
f 251/283/251 250/282/250 227/258/227 228/259/228
f 252/284/252 251/283/251 228/259/228 229/260/229
f 253/285/253 252/284/252 229/260/229 230/261/230
f 254/286/254 253/285/253 230/261/230 231/262/231
f 232/287/233 254/286/254 231/262/231 209/263/209
f 256/289/256 255/288/255 232/265/233 233/264/232
f 257/290/257 256/289/256 233/264/232 234/266/234
f 258/291/258 257/290/257 234/266/234 235/267/235
f 259/292/259 258/291/258 235/267/235 236/268/236
f 260/293/260 259/292/259 236/268/236 237/269/237
f 261/294/261 260/293/260 237/269/237 238/270/238
f 262/295/262 261/294/261 238/270/238 239/271/239
f 263/296/263 262/295/262 239/271/239 240/272/240
f 264/297/264 263/296/263 240/272/240 241/273/241
f 265/298/265 264/297/264 241/273/241 242/274/242
f 266/299/266 265/298/265 242/274/242 243/275/243
f 267/300/267 266/299/266 243/275/243 244/276/244
f 268/301/268 267/300/267 244/276/244 245/277/245
f 269/302/269 268/301/268 245/277/245 246/278/246
f 270/303/270 269/302/269 246/278/246 247/279/247
f 271/304/271 270/303/270 247/279/247 248/280/248
f 272/305/272 271/304/271 248/280/248 249/281/249
f 273/306/273 272/305/272 249/281/249 250/282/250
f 274/307/274 273/306/273 250/282/250 251/283/251
f 275/308/275 274/307/274 251/283/251 252/284/252
f 276/309/276 275/308/275 252/284/252 253/285/253
f 277/310/277 276/309/276 253/285/253 254/286/254
f 255/311/255 277/310/277 254/286/254 232/287/233
f 279/312/278 278/313/279 255/288/255 256/289/256
f 280/314/280 279/312/278 256/289/256 257/290/257
f 281/315/281 280/314/280 257/290/257 258/291/258
f 282/316/282 281/315/281 258/291/258 259/292/259
f 283/317/283 282/316/282 259/292/259 260/293/260
f 284/318/284 283/317/283 260/293/260 261/294/261
f 285/319/285 284/318/284 261/294/261 262/295/262
f 286/320/286 285/319/285 262/295/262 263/296/263
f 287/321/287 286/320/286 263/296/263 264/297/264
f 288/322/288 287/321/287 264/297/264 265/298/265
f 289/323/289 288/322/288 265/298/265 266/299/266
f 290/324/290 289/323/289 266/299/266 267/300/267
f 291/325/291 290/324/290 267/300/267 268/301/268
f 292/326/292 291/325/291 268/301/268 269/302/269
f 293/327/293 292/326/292 269/302/269 270/303/270
f 294/328/294 293/327/293 270/303/270 271/304/271
f 295/329/295 294/328/294 271/304/271 272/305/272
f 296/330/296 295/329/295 272/305/272 273/306/273
f 297/331/297 296/330/296 273/306/273 274/307/274
f 298/332/298 297/331/297 274/307/274 275/308/275
f 299/333/299 298/332/298 275/308/275 276/309/276
f 300/334/300 299/333/299 276/309/276 277/310/277
f 278/335/279 300/334/300 277/310/277 255/311/255
f 302/336/301 301/337/302 278/313/279 279/312/278
f 303/338/303 302/336/301 279/312/278 280/314/280
f 304/339/304 303/338/303 280/314/280 281/315/281
f 305/340/305 304/339/304 281/315/281 282/316/282
f 306/341/306 305/340/305 282/316/282 283/317/283
f 307/342/307 306/341/306 283/317/283 284/318/284
f 308/343/308 307/342/307 284/318/284 285/319/285
f 309/344/309 308/343/308 285/319/285 286/320/286
f 310/345/310 309/344/309 286/320/286 287/321/287
f 311/346/311 310/345/310 287/321/287 288/322/288
f 312/347/312 311/346/311 288/322/288 289/323/289
f 313/348/313 312/347/312 289/323/289 290/324/290
f 314/349/314 313/348/313 290/324/290 291/325/291
f 315/350/315 314/349/314 291/325/291 292/326/292
f 316/351/316 315/350/315 292/326/292 293/327/293
f 317/352/317 316/351/316 293/327/293 294/328/294
f 318/353/318 317/352/317 294/328/294 295/329/295
f 319/354/319 318/353/318 295/329/295 296/330/296
f 320/355/320 319/354/319 296/330/296 297/331/297
f 321/356/321 320/355/320 297/331/297 298/332/298
f 322/357/322 321/356/321 298/332/298 299/333/299
f 323/358/323 322/357/322 299/333/299 300/334/300
f 301/359/302 323/358/323 300/334/300 278/335/279
f 325/361/325 324/360/324 301/337/302 302/336/301
f 326/362/326 325/361/325 302/336/301 303/338/303
f 327/363/327 326/362/326 303/338/303 304/339/304
f 328/364/328 327/363/327 304/339/304 305/340/305
f 329/365/329 328/364/328 305/340/305 306/341/306
f 330/366/330 329/365/329 306/341/306 307/342/307
f 331/367/331 330/366/330 307/342/307 308/343/308
f 332/368/332 331/367/331 308/343/308 309/344/309
f 333/369/333 332/368/332 309/344/309 310/345/310
f 334/370/334 333/369/333 310/345/310 311/346/311
f 335/371/335 334/370/334 311/346/311 312/347/312
f 336/372/336 335/371/335 312/347/312 313/348/313
f 337/373/337 336/372/336 313/348/313 314/349/314
f 338/374/338 337/373/337 314/349/314 315/350/315
f 339/375/339 338/374/338 315/350/315 316/351/316
f 340/376/340 339/375/339 316/351/316 317/352/317
f 341/377/341 340/376/340 317/352/317 318/353/318
f 342/378/342 341/377/341 318/353/318 319/354/319
f 343/379/343 342/378/342 319/354/319 320/355/320
f 344/380/344 343/379/343 320/355/320 321/356/321
f 345/381/345 344/380/344 321/356/321 322/357/322
f 346/382/346 345/381/345 322/357/322 323/358/323
f 324/383/324 346/382/346 323/358/323 301/359/302
f 348/384/347 347/385/348 324/360/324 325/361/325
f 349/386/349 348/384/347 325/361/325 326/362/326
f 350/387/350 349/386/349 326/362/326 327/363/327
f 351/388/351 350/387/350 327/363/327 328/364/328
f 352/389/352 351/388/351 328/364/328 329/365/329
f 353/390/353 352/389/352 329/365/329 330/366/330
f 354/391/354 353/390/353 330/366/330 331/367/331
f 355/392/355 354/391/354 331/367/331 332/368/332
f 356/393/356 355/392/355 332/368/332 333/369/333
f 357/394/357 356/393/356 333/369/333 334/370/334
f 358/395/358 357/394/357 334/370/334 335/371/335
f 359/396/359 358/395/358 335/371/335 336/372/336
f 360/397/360 359/396/359 336/372/336 337/373/337
f 361/398/361 360/397/360 337/373/337 338/374/338
f 362/399/362 361/398/361 338/374/338 339/375/339
f 363/400/363 362/399/362 339/375/339 340/376/340
f 364/401/364 363/400/363 340/376/340 341/377/341
f 365/402/365 364/401/364 341/377/341 342/378/342
f 366/403/366 365/402/365 342/378/342 343/379/343
f 367/404/367 366/403/366 343/379/343 344/380/344
f 368/405/368 367/404/367 344/380/344 345/381/345
f 369/406/369 368/405/368 345/381/345 346/382/346
f 347/407/348 369/406/369 346/382/346 324/383/324
f 371/408/370 370/409/371 347/385/348 348/384/347
f 372/410/372 371/408/370 348/384/347 349/386/349
f 373/411/373 372/410/372 349/386/349 350/387/350
f 374/412/374 373/411/373 350/387/350 351/388/351
f 375/413/375 374/412/374 351/388/351 352/389/352
f 376/414/376 375/413/375 352/389/352 353/390/353
f 377/415/377 376/414/376 353/390/353 354/391/354
f 378/416/378 377/415/377 354/391/354 355/392/355
f 379/417/379 378/416/378 355/392/355 356/393/356
f 380/418/380 379/417/379 356/393/356 357/394/357
f 381/419/381 380/418/380 357/394/357 358/395/358
f 382/420/382 381/419/381 358/395/358 359/396/359
f 383/421/383 382/420/382 359/396/359 360/397/360
f 384/422/384 383/421/383 360/397/360 361/398/361
f 385/423/385 384/422/384 361/398/361 362/399/362
f 386/424/386 385/423/385 362/399/362 363/400/363
f 387/425/387 386/424/386 363/400/363 364/401/364
f 388/426/388 387/425/387 364/401/364 365/402/365
f 389/427/389 388/426/388 365/402/365 366/403/366
f 390/428/390 389/427/389 366/403/366 367/404/367
f 391/429/391 390/428/390 367/404/367 368/405/368
f 392/430/392 391/429/391 368/405/368 369/406/369
f 370/431/371 392/430/392 369/406/369 347/407/348
f 393/432/393 370/409/371 371/408/370
f 393/433/393 371/408/370 372/410/372
f 393/434/393 372/410/372 373/411/373
f 393/435/393 373/411/373 374/412/374
f 393/436/393 374/412/374 375/413/375
f 393/437/393 375/413/375 376/414/376
f 393/438/393 376/414/376 377/415/377
f 393/439/393 377/415/377 378/416/378
f 393/440/393 378/416/378 379/417/379
f 393/441/393 379/417/379 380/418/380
f 393/442/393 380/418/380 381/419/381
f 393/443/393 381/419/381 382/420/382
f 393/444/393 382/420/382 383/421/383
f 393/445/393 383/421/383 384/422/384
f 393/446/393 384/422/384 385/423/385
f 393/447/393 385/423/385 386/424/386
f 393/448/393 386/424/386 387/425/387
f 393/449/393 387/425/387 388/426/388
f 393/450/393 388/426/388 389/427/389
f 393/451/393 389/427/389 390/428/390
f 393/452/393 390/428/390 391/429/391
f 393/453/393 391/429/391 392/430/392
f 393/454/393 392/430/392 370/431/371
# 414 polygons

